<svg xmlns="http://www.w3.org/2000/svg" xmlns:xlink="http://www.w3.org/1999/xlink" version="1.1" x="0px" y="0px" viewBox="0 0 100 125" enable-background="new 0 0 100 100" xml:space="preserve"><g><path fill="none" d="M75.941,43.729c-0.109-0.016-0.385-0.048-0.908-0.048c-1.516,0-3.963,0.26-7.076,0.751   c-1.596,0.252-4.848,1.831-6.523,2.768l-2.037,1.14l-1.357-1.9c-5.74-8.045-14.605-20.327-18.361-25.23   c-1.531,1.943-3.616,5.207-4.764,9.95c-1.731,7.162-1.54,9.583-1.192,13.979c0.054,0.659,0.108,1.357,0.161,2.114   c0.334,4.792,4.258,8.367,4.297,8.402l2.626,2.309L18.89,71.711l9.971,6.354l4.92-8.609l1.41-0.084   c0.047-0.002,4.905-0.287,17.469-0.84c10.92-0.479,15.889-3.215,18.559-4.686c0.305-0.168,0.58-0.32,0.836-0.453   c1.77-0.932,3.404-3.605,3.656-4.377c0.057-0.566,0.027-1.506-0.006-2.068l-0.748-2.615l1.416-3.01l1.857-2.887l1.115-0.217   l-1.76-2.626C77.084,44.86,76.313,43.988,75.941,43.729z"/><path d="M81.412,53.127l9.455-1.838l-6.873-5.5l-2.088-3.115c-0.652-0.958-2.373-3.253-4.258-3.882   c-0.664-0.221-1.494-0.324-2.615-0.324c-1.809,0-4.463,0.274-7.889,0.815c-1.877,0.296-4.406,1.411-6.178,2.283   C41.709,14.598,41.418,14.6,39.714,14.6l-1.489,0.007l-0.663,1.104c-0.048,0.052-0.106,0.114-0.174,0.186   c-1.384,1.48-5.594,5.985-7.54,14.035c-1.929,7.97-1.688,11.012-1.323,15.617c0.051,0.644,0.106,1.325,0.157,2.065   c0.282,4.031,2.18,7.326,3.778,9.427L9.133,71.678L30.673,85.4l6.23-10.902c2.222-0.119,7.217-0.371,15.983-0.758   c12.141-0.533,17.805-3.652,20.848-5.328c0.271-0.148,0.52-0.287,0.746-0.406c3.271-1.719,6.135-6.193,6.395-8.256   c0.168-1.338,0.029-3.24,0.012-3.453l-0.02-0.264l-0.365-1.273l0.355-0.77L81.412,53.127z M78.23,48.435l-1.857,2.887l-1.416,3.01   l0.748,2.615c0.033,0.563,0.063,1.502,0.006,2.068c-0.252,0.771-1.887,3.445-3.656,4.377c-0.256,0.133-0.531,0.285-0.836,0.453   c-2.67,1.471-7.639,4.207-18.559,4.686c-12.564,0.553-17.422,0.838-17.469,0.84l-1.41,0.084l-4.92,8.609l-9.971-6.354   l21.916-13.748l-2.626-2.309c-0.039-0.035-3.963-3.609-4.297-8.402c-0.053-0.757-0.107-1.455-0.161-2.114   c-0.348-4.396-0.539-6.818,1.192-13.979c1.147-4.743,3.232-8.006,4.764-9.95c3.756,4.903,12.621,17.185,18.361,25.23l1.357,1.9   l2.037-1.14c1.676-0.937,4.928-2.516,6.523-2.768c3.113-0.491,5.561-0.751,7.076-0.751c0.523,0,0.799,0.032,0.908,0.048   c0.371,0.259,1.143,1.131,1.645,1.864l1.76,2.626L78.23,48.435z"/></g><text x="0" y="115" fill="#000000" font-size="5px" font-weight="bold" font-family="'Helvetica Neue', Helvetica, Arial-Unicode, Arial, Sans-serif">Created by Ker'is</text><text x="0" y="120" fill="#000000" font-size="5px" font-weight="bold" font-family="'Helvetica Neue', Helvetica, Arial-Unicode, Arial, Sans-serif">from the Noun Project</text></svg>