<svg xmlns="http://www.w3.org/2000/svg" xmlns:xlink="http://www.w3.org/1999/xlink" xml:space="preserve" version="1.1" style="shape-rendering:geometricPrecision;text-rendering:geometricPrecision;image-rendering:optimizeQuality;" viewBox="0 0 5.242 5.51875" x="0px" y="0px" fill-rule="evenodd" clip-rule="evenodd"><defs><style type="text/css">
   
    .fil0 {fill:black}
   
  </style></defs><g><path class="fil0" d="M4.818 2.16c0.026,0.001 0.047,0.018 0.055,0.041l0.348 0.812 -5.2 0 0.35 -0.816c0.01,-0.023 0.032,-0.037 0.056,-0.037l0.548 0 0 -0.366 -0.487 0c-0.034,0 -0.061,-0.027 -0.061,-0.061l0 -0.487c0,-0.034 0.027,-0.061 0.061,-0.061l4.266 0c0.034,0 0.061,0.027 0.061,0.061l0 0.487c0,0.034 -0.027,0.061 -0.061,0.061l-0.487 0 0 0.366 0.551 0zm-3.355 0l2.316 0 0 -0.366 -2.316 0 0 0.366zm2.316 -1.855l0 -0.305 0.488 0 0 0.305 0.487 0c0.034,0 0.061,0.027 0.061,0.061l0 0.487c0,0.034 -0.027,0.061 -0.061,0.061l-4.266 0c-0.034,0 -0.061,-0.027 -0.061,-0.061l0 -0.487c0,-0.034 0.027,-0.061 0.061,-0.061l0.487 0 0 -0.305 0.488 0 0 0.305 2.316 0zm-3.718 2.83l5.12 0c0.034,0 0.061,0.028 0.061,0.061l0 0.244c0,0.034 -0.027,0.061 -0.061,0.061l-0.487 0 0 0.914 -0.488 0 0 -0.914 -3.17 0 0 0.914 -0.487 0 0 -0.914 -0.488 0c-0.034,0 -0.061,-0.027 -0.061,-0.061l0 -0.244c0,-0.033 0.027,-0.061 0.061,-0.061z"/></g><text x="0" y="19.415" fill="#000000" font-size="5px" font-weight="bold" font-family="'Helvetica Neue', Helvetica, Arial-Unicode, Arial, Sans-serif">Created by Deemak Daksina</text><text x="0" y="24.415" fill="#000000" font-size="5px" font-weight="bold" font-family="'Helvetica Neue', Helvetica, Arial-Unicode, Arial, Sans-serif">from the Noun Project</text></svg>