<?xml version="1.0" encoding="UTF-8"?>
<svg width="700pt" height="700pt" version="1.1" viewBox="0 0 700 700" xmlns="http://www.w3.org/2000/svg">
 <path d="m525 17.5h-350c-4.6406 0-9.0938 1.8438-12.375 5.125s-5.125 7.7344-5.125 12.375v490c0 4.6406 1.8438 9.0938 5.125 12.375s7.7344 5.125 12.375 5.125h350c4.6406 0 9.0938-1.8438 12.375-5.125s5.125-7.7344 5.125-12.375v-490c0-4.6406-1.8438-9.0938-5.125-12.375s-7.7344-5.125-12.375-5.125zm-288.75 490h-43.75v-91.875h43.75zm0-126.88h-43.75v-83.125h43.75zm0-118.12h-43.75v-83.125h43.75zm0-118.12h-43.75v-91.875h43.75zm271.25 363.12h-43.75v-91.875h43.75zm0-126.88h-43.75v-83.125h43.75zm0-118.12h-43.75v-83.125h43.75zm0-118.12h-43.75v-91.875h43.75z"/>
</svg>
