<?xml version="1.0" encoding="UTF-8"?>
<svg width="700pt" height="700pt" version="1.1" viewBox="0 0 700 700" xmlns="http://www.w3.org/2000/svg" xmlns:xlink="http://www.w3.org/1999/xlink">
 <defs>
  <symbol id="a" overflow="visible">
   <path d="m28.375-29.047v-18.219h10.938v47.266h-10.938v-4.9219c-1.5 2.0117-3.1523 3.4805-4.9531 4.4062-1.8047 0.92578-3.8867 1.3906-6.25 1.3906-4.1992 0-7.6484-1.6602-10.344-4.9844-2.6875-3.332-4.0312-7.625-4.0312-12.875 0-5.2383 1.3438-9.5234 4.0312-12.859 2.6953-3.332 6.1445-5 10.344-5 2.3438 0 4.4219 0.47656 6.2344 1.4219 1.8125 0.9375 3.4688 2.3984 4.9688 4.375zm-7.1719 22.031c2.332 0 4.1094-0.84766 5.3281-2.5469 1.2266-1.707 1.8438-4.1797 1.8438-7.4219 0-3.2383-0.61719-5.707-1.8438-7.4062-1.2188-1.707-2.9961-2.5625-5.3281-2.5625-2.3125 0-4.0859 0.85547-5.3125 2.5625-1.2188 1.6992-1.8281 4.168-1.8281 7.4062 0 3.2422 0.60938 5.7148 1.8281 7.4219 1.2266 1.6992 3 2.5469 5.3125 2.5469z"/>
  </symbol>
  <symbol id="b" overflow="visible">
   <path d="m23.328-7.0156c2.332 0 4.1094-0.84766 5.3281-2.5469 1.2266-1.707 1.8438-4.1797 1.8438-7.4219 0-3.2383-0.61719-5.707-1.8438-7.4062-1.2188-1.707-2.9961-2.5625-5.3281-2.5625-2.3242 0-4.1094 0.85938-5.3594 2.5781-1.25 1.7109-1.875 4.1719-1.875 7.3906s0.625 5.6875 1.875 7.4062c1.25 1.7109 3.0352 2.5625 5.3594 2.5625zm-7.2344-22.031c1.5-1.9766 3.1602-3.4375 4.9844-4.375 1.8203-0.94531 3.9219-1.4219 6.2969-1.4219 4.1875 0 7.6289 1.668 10.328 5 2.6953 3.3359 4.0469 7.6211 4.0469 12.859 0 5.25-1.3516 9.543-4.0469 12.875-2.6992 3.3242-6.1406 4.9844-10.328 4.9844-2.375 0-4.4766-0.46875-6.2969-1.4062-1.8242-0.9375-3.4844-2.3984-4.9844-4.3906v4.9219h-10.875v-47.266h10.875z"/>
  </symbol>
 </defs>
 <g>
  <path d="m355.04 181.03c0.62109-10.414 3.0117-19.477 6.1484-27.902-36.039-122.79-284.28-53.672-198.68 127.01 39.547 74.07 104.95 127.12 172.47 175.69-13.84-33.078-36.949-107.99-13.875-202.12 9.2305-37.633 16.875-49.766 33.934-72.676zm-53.273 13.562c-11.586-8.1992-23.148-16.961-29.93-29.645-14.484-30.574 31.895-40.844 31.895-14.984 0.53516-17.262 28.062-15.992 29.73 0.050781 2.3633 22.715-32.117 22.004-31.695 44.578z"/>
  <path d="m455.12 116.37c40.543 0 84.051 23.992 88.766 69.887 7.0195 66.801-41.852 99.281-93.645 133.62-42.945 28.535-87.234 57.918-102.42 108.28-11.723-35.977-23.57-96.805-5.8008-169.32 8.9336-36.352 15.27-44.852 32.23-67.574l2.0156-2.75 0.125-3.3867c0.26172-9.3945 2.2383-18.242 6.0234-27.078 13.109-30.73 46.148-41.672 72.703-41.672m0-10.762c-34.855 0-68.73 15.629-82.645 48.223-3.8711 9.0703-6.5078 19.203-6.832 30.988-17.832 23.832-24.891 33.922-34.098 71.457-30.055 122.6 21.465 212.46 21.465 212.46-0.16016-7.8281 0.47266-15.121 1.582-22.137 19.152-121.38 214.32-124.95 199.98-261.45-5.3086-52.039-53.297-79.551-99.453-79.551z"/>
  <path d="m424.8 153.64c10.965-9.3711 29.582 6.8438 19.266 18.316 15.953-16.727 39.598 18.605 11.312 29.406-12.195 4.0195-25.113 2.5273-37.656 0.67188 14.219-14.336-8.5039-35.23 7.0781-48.395z"/>
  <use x="302.484375" y="746.667969" xlink:href="#a"/>
  <use x="368.683594" y="746.667969" xlink:href="#b"/>
  <use x="608.855469" y="746.667969" xlink:href="#a"/>
 </g>
</svg>
