<svg xmlns="http://www.w3.org/2000/svg" xmlns:xlink="http://www.w3.org/1999/xlink" version="1.1" x="0px" y="0px" viewBox="0 0 64 80" style="enable-background:new 0 0 64 64;" xml:space="preserve"><path d="M12.32,31.5c3.04,0,5.57-2.19,6.13-5.07H6.19C6.75,29.32,9.28,31.5,12.32,31.5z"/><path d="M45.51,26.93c0.74,2.63,3.14,4.57,6,4.57c2.86,0,5.26-1.94,6-4.57H45.51z"/><path d="M52.39,11.93c-0.53-5.5-5.17-9.81-10.8-9.81c-4.29,0-8,2.51-9.76,6.13c-1.76-3.62-5.47-6.13-9.76-6.13  c-5.63,0-10.27,4.31-10.8,9.8c-4.82,0.49-8.67,4.32-9.18,9.14H2.04v1.09v1.09v2.2h20.57v-2.2v-1.09v-1.09h-0.06  c-0.51-4.78-4.3-8.58-9.06-9.12c0.51-4.29,4.17-7.63,8.59-7.63c4.78,0,8.66,3.89,8.66,8.66v46.72h-3.52v2.19h9.22v-2.19h-3.52V12.97  c0-4.78,3.89-8.66,8.66-8.66c4.43,0,8.09,3.34,8.6,7.64c-4.77,0.54-8.56,4.34-9.07,9.12h-0.06v1.09v1.09v2.69h20.9l-0.39-4.87  C61.06,16.25,57.21,12.42,52.39,11.93z"/><text x="0" y="79" fill="#000000" font-size="5px" font-weight="bold" font-family="'Helvetica Neue', Helvetica, Arial-Unicode, Arial, Sans-serif">Created by fix project</text><text x="0" y="84" fill="#000000" font-size="5px" font-weight="bold" font-family="'Helvetica Neue', Helvetica, Arial-Unicode, Arial, Sans-serif">from the Noun Project</text></svg>