<svg xmlns="http://www.w3.org/2000/svg" xmlns:xlink="http://www.w3.org/1999/xlink" version="1.1" x="0px" y="0px"
    viewBox="0 0 893.955 763.0862500000001" enable-background="new 0 0 893.955 610.469" xml:space="preserve">
    <path fill-rule="evenodd" clip-rule="evenodd"
        d="M691.194,253.199h-1.956c0.293-4.296,0.456-8.629,0.456-13  c0-103.83-84.17-188-188-188c-72.923,0-136.147,41.521-167.326,102.21c-16.374-13.853-37.546-22.21-60.674-22.21  c-51.915,0-94,42.085-94,94c0,9.566,1.433,18.796,4.089,27.493c-80.077,6.324-143.089,73.304-143.089,155.007v1  c0,85.88,69.62,155.5,155.5,155.5h495c85.88,0,155.5-69.62,155.5-155.5v-1C846.694,322.819,777.074,253.199,691.194,253.199z" />
    <text x="0" y="625.469" fill="#000000" font-size="5px" font-weight="bold"
        font-family="'Helvetica Neue', Helvetica, Arial-Unicode, Arial, Sans-serif">Created by David Pareja</text><text
        x="0" y="630.469" fill="#000000" font-size="5px" font-weight="bold"
        font-family="'Helvetica Neue', Helvetica, Arial-Unicode, Arial, Sans-serif">from the Noun Project</text></svg>