<svg xmlns="http://www.w3.org/2000/svg" data-name="Warstwa 1" viewBox="0 0 24 30" x="0px" y="0px"><title>Weather</title><path d="M21.64,12a.49.49,0,0,0-.57.2,6,6,0,1,1-6.73-9,.51.51,0,0,0,.36-.49.5.5,0,0,0-.39-.47A10,10,0,1,0,22,12.52.5.5,0,0,0,21.64,12ZM12,21A9,9,0,0,1,12,3h.39a7,7,0,1,0,8.34,11.15A9,9,0,0,1,12,21Z"/><text x="0" y="39" fill="#000000" font-size="5px" font-weight="bold" font-family="'Helvetica Neue', Helvetica, Arial-Unicode, Arial, Sans-serif">Created by Martin</text><text x="0" y="44" fill="#000000" font-size="5px" font-weight="bold" font-family="'Helvetica Neue', Helvetica, Arial-Unicode, Arial, Sans-serif">from the Noun Project</text></svg>