<?xml version="1.0" encoding="UTF-8"?>
<svg width="700pt" height="700pt" version="1.1" viewBox="0 0 700 700" xmlns="http://www.w3.org/2000/svg" xmlns:xlink="http://www.w3.org/1999/xlink">
 <defs>
  <symbol id="v" overflow="visible">
   <path d="m2.1719-0.125c-0.10547 0.054688-0.21875 0.09375-0.34375 0.125s-0.25 0.046875-0.375 0.046875c-0.39844 0-0.71484-0.10938-0.95312-0.32812-0.23047-0.21875-0.34375-0.51953-0.34375-0.90625 0-0.375 0.11328-0.67188 0.34375-0.89062 0.23828-0.21875 0.55469-0.32812 0.95312-0.32812 0.125 0 0.25 0.015625 0.375 0.046875 0.125 0.023437 0.23828 0.0625 0.34375 0.125v0.48438c-0.11719-0.070312-0.23047-0.125-0.34375-0.15625-0.10547-0.039062-0.21484-0.0625-0.32812-0.0625-0.21875 0-0.39062 0.074219-0.51562 0.21875-0.125 0.13672-0.1875 0.32422-0.1875 0.5625 0 0.25 0.0625 0.44922 0.1875 0.59375 0.125 0.13672 0.29688 0.20312 0.51562 0.20312 0.11328 0 0.22266-0.015625 0.32812-0.046875 0.11328-0.039062 0.22656-0.10156 0.34375-0.1875z"/>
  </symbol>
  <symbol id="d" overflow="visible">
   <path d="m1.5938-1.2969c-0.054688-0.019531-0.10547-0.035156-0.15625-0.046875-0.042969-0.007812-0.089844-0.015625-0.14062-0.015625-0.14844 0-0.26172 0.046875-0.34375 0.14062-0.074219 0.09375-0.10938 0.23047-0.10938 0.40625v0.8125h-0.57812v-1.7812h0.57812v0.29688c0.070312-0.11328 0.15625-0.19531 0.25-0.25 0.09375-0.050781 0.20703-0.078125 0.34375-0.078125h0.0625 0.09375z"/>
  </symbol>
  <symbol id="a" overflow="visible">
   <path d="m2.0469-0.89062v0.15625h-1.3281c0.007812 0.13672 0.054688 0.24219 0.14062 0.3125 0.082031 0.0625 0.19531 0.09375 0.34375 0.09375 0.125 0 0.25-0.015625 0.375-0.046875 0.125-0.039062 0.25391-0.097656 0.39062-0.17188v0.4375c-0.13672 0.054688-0.27344 0.089844-0.40625 0.10938-0.13672 0.03125-0.27344 0.046875-0.40625 0.046875-0.32422 0-0.57422-0.078125-0.75-0.23438-0.17969-0.16406-0.26562-0.39844-0.26562-0.70312 0-0.28906 0.085937-0.51562 0.26562-0.67188 0.17578-0.16406 0.41406-0.25 0.71875-0.25 0.28125 0 0.50391 0.085938 0.67188 0.25 0.16406 0.16797 0.25 0.39062 0.25 0.67188zm-0.57812-0.1875c0-0.11328-0.03125-0.20312-0.09375-0.26562s-0.14844-0.09375-0.25-0.09375c-0.11719 0-0.21094 0.03125-0.28125 0.09375-0.0625 0.0625-0.10547 0.15234-0.125 0.26562z"/>
  </symbol>
  <symbol id="l" overflow="visible">
   <path d="m1.0625-0.79688c-0.11719 0-0.20312 0.023437-0.26562 0.0625-0.054687 0.042969-0.078125 0.10156-0.078125 0.17188 0 0.074219 0.019531 0.13281 0.0625 0.17188 0.050781 0.042969 0.11719 0.0625 0.20312 0.0625 0.10156 0 0.19141-0.035156 0.26562-0.10938 0.070312-0.082031 0.10938-0.17969 0.10938-0.29688v-0.0625zm0.875-0.21875v1.0156h-0.57812v-0.26562c-0.074219 0.10547-0.15625 0.18359-0.25 0.23438s-0.21094 0.078125-0.34375 0.078125c-0.1875 0-0.33984-0.050781-0.45312-0.15625-0.11719-0.11328-0.17188-0.25391-0.17188-0.42188 0-0.20703 0.066406-0.35938 0.20312-0.45312 0.14453-0.10156 0.375-0.15625 0.6875-0.15625h0.32812v-0.046875c0-0.082031-0.039063-0.14453-0.10938-0.1875-0.0625-0.039062-0.17188-0.0625-0.32812-0.0625-0.11719 0-0.22656 0.011719-0.32812 0.03125-0.10547 0.023438-0.20312 0.058594-0.29688 0.10938v-0.4375c0.125-0.03125 0.24219-0.050781 0.35938-0.0625 0.125-0.007813 0.25-0.015625 0.375-0.015625 0.32031 0 0.55078 0.0625 0.6875 0.1875 0.14453 0.125 0.21875 0.32812 0.21875 0.60938z"/>
  </symbol>
  <symbol id="c" overflow="visible">
   <path d="m0.89062-2.2812v0.5h0.59375v0.40625h-0.59375v0.75c0 0.085938 0.015625 0.14062 0.046875 0.17188s0.097656 0.046875 0.20312 0.046875h0.29688v0.40625h-0.5c-0.21875 0-0.375-0.046875-0.46875-0.14062s-0.14062-0.25391-0.14062-0.48438v-0.75h-0.28125v-0.40625h0.28125v-0.5z"/>
  </symbol>
  <symbol id="k" overflow="visible">
   <path d="m1.4844-1.5156v-0.95312h0.5625v2.4688h-0.5625v-0.25c-0.085937 0.10547-0.17188 0.18359-0.26562 0.23438-0.09375 0.039062-0.20312 0.0625-0.32812 0.0625-0.21875 0-0.40234-0.082031-0.54688-0.25-0.13672-0.17578-0.20312-0.40625-0.20312-0.6875 0-0.26953 0.066406-0.48828 0.20312-0.65625 0.14453-0.17578 0.32812-0.26562 0.54688-0.26562 0.125 0 0.23438 0.027344 0.32812 0.078125 0.09375 0.042969 0.17969 0.11719 0.26562 0.21875zm-0.375 1.1562c0.125 0 0.21875-0.046875 0.28125-0.14062s0.09375-0.22266 0.09375-0.39062c0-0.16406-0.03125-0.28906-0.09375-0.375-0.0625-0.09375-0.15625-0.14062-0.28125-0.14062s-0.21875 0.046875-0.28125 0.14062c-0.0625 0.085937-0.09375 0.21094-0.09375 0.375 0 0.16797 0.03125 0.29688 0.09375 0.39062s0.15625 0.14062 0.28125 0.14062z"/>
  </symbol>
  <symbol id="j" overflow="visible">
   <path d="m1.2188-0.35938c0.125 0 0.21875-0.046875 0.28125-0.14062s0.09375-0.22266 0.09375-0.39062c0-0.16406-0.03125-0.28906-0.09375-0.375-0.0625-0.09375-0.15625-0.14062-0.28125-0.14062s-0.21875 0.046875-0.28125 0.14062c-0.0625 0.085937-0.09375 0.21094-0.09375 0.375 0 0.16797 0.03125 0.29688 0.09375 0.39062s0.15625 0.14062 0.28125 0.14062zm-0.375-1.1562c0.070312-0.10156 0.15625-0.17578 0.25-0.21875 0.10156-0.050781 0.21875-0.078125 0.34375-0.078125 0.21875 0 0.39453 0.089844 0.53125 0.26562 0.14453 0.16797 0.21875 0.38672 0.21875 0.65625 0 0.28125-0.074219 0.51172-0.21875 0.6875-0.13672 0.16797-0.3125 0.25-0.53125 0.25-0.125 0-0.24219-0.027344-0.34375-0.078125-0.09375-0.050781-0.17969-0.125-0.25-0.21875v0.25h-0.57812v-2.4688h0.57812z"/>
  </symbol>
  <symbol id="i" overflow="visible">
   <path d="m0.046875-1.7812h0.5625l0.46875 1.2031 0.40625-1.2031h0.57812l-0.75 1.9531c-0.074219 0.19531-0.16406 0.33203-0.26562 0.40625-0.09375 0.082031-0.22656 0.125-0.39062 0.125h-0.32812v-0.375h0.17188c0.09375 0 0.16016-0.015625 0.20312-0.046875 0.050781-0.03125 0.085937-0.085938 0.10938-0.15625l0.015625-0.0625z"/>
  </symbol>
  <symbol id="h" overflow="visible">
   <path d="m1.7344-0.4375h-0.95312l-0.15625 0.4375h-0.60938l0.875-2.375h0.73438l0.875 2.375h-0.60938zm-0.79688-0.4375h0.64062l-0.3125-0.9375z"/>
  </symbol>
  <symbol id="e" overflow="visible">
   <path d="m0.29688-2.375h0.6875l0.85938 1.625v-1.625h0.57812v2.375h-0.6875l-0.85938-1.625v1.625h-0.57812z"/>
  </symbol>
  <symbol id="u" overflow="visible">
   <path d="m0.015625-2.375h2.1875v0.46875h-0.79688v1.9062h-0.60938v-1.9062h-0.78125z"/>
  </symbol>
  <symbol id="t" overflow="visible">
   <path d="m1.375-1.9688c-0.1875 0-0.33594 0.070312-0.4375 0.20312-0.09375 0.13672-0.14062 0.32812-0.14062 0.57812s0.046875 0.44922 0.14062 0.59375c0.10156 0.13672 0.25 0.20312 0.4375 0.20312s0.33203-0.066406 0.4375-0.20312c0.10156-0.14453 0.15625-0.34375 0.15625-0.59375s-0.054688-0.44141-0.15625-0.57812c-0.10547-0.13281-0.25-0.20312-0.4375-0.20312zm0-0.4375c0.38281 0 0.67969 0.10938 0.89062 0.32812 0.21875 0.21094 0.32812 0.50781 0.32812 0.89062 0 0.38672-0.10938 0.6875-0.32812 0.90625-0.21094 0.21875-0.50781 0.32812-0.89062 0.32812-0.375 0-0.67188-0.10938-0.89062-0.32812s-0.32812-0.51953-0.32812-0.90625c0-0.38281 0.10938-0.67969 0.32812-0.89062 0.21875-0.21875 0.51562-0.32812 0.89062-0.32812z"/>
  </symbol>
  <symbol id="s" overflow="visible">
   <path d="m0.26562-1.7812h0.57812v1.7812h-0.57812zm0-0.6875h0.57812v0.46875h-0.57812z"/>
  </symbol>
  <symbol id="g" overflow="visible">
   <path d="m1.7031-1.7188v0.45312c-0.074219-0.050781-0.15234-0.085937-0.23438-0.10938-0.074219-0.019531-0.15234-0.03125-0.23438-0.03125-0.15625 0-0.28125 0.046875-0.375 0.14062-0.085937 0.085937-0.125 0.21094-0.125 0.375 0 0.16797 0.039063 0.29688 0.125 0.39062 0.09375 0.09375 0.21875 0.14062 0.375 0.14062 0.09375 0 0.17578-0.007813 0.25-0.03125 0.082031-0.03125 0.15625-0.070313 0.21875-0.125v0.46875c-0.085937 0.03125-0.17188 0.050781-0.26562 0.0625-0.09375 0.019531-0.1875 0.03125-0.28125 0.03125-0.3125 0-0.5625-0.082031-0.75-0.25-0.17969-0.16406-0.26562-0.39453-0.26562-0.6875 0-0.28906 0.085937-0.51562 0.26562-0.67188 0.1875-0.16406 0.4375-0.25 0.75-0.25 0.09375 0 0.1875 0.011719 0.28125 0.03125 0.09375 0.011719 0.17969 0.03125 0.26562 0.0625z"/>
  </symbol>
  <symbol id="b" overflow="visible">
   <path d="m1.125-1.4062c-0.125 0-0.22656 0.046875-0.29688 0.14062-0.0625 0.085937-0.09375 0.21094-0.09375 0.375 0 0.17969 0.03125 0.3125 0.09375 0.40625 0.070313 0.085937 0.17188 0.125 0.29688 0.125 0.11328 0 0.20312-0.039063 0.26562-0.125 0.070313-0.09375 0.10938-0.22656 0.10938-0.40625 0-0.16406-0.039062-0.28906-0.10938-0.375-0.0625-0.09375-0.15234-0.14062-0.26562-0.14062zm0-0.40625c0.30078 0 0.53516 0.085938 0.70312 0.25 0.17578 0.15625 0.26562 0.38281 0.26562 0.67188 0 0.29297-0.089844 0.52344-0.26562 0.6875-0.16797 0.16797-0.40234 0.25-0.70312 0.25-0.3125 0-0.55859-0.082031-0.73438-0.25-0.16797-0.16406-0.25-0.39453-0.25-0.6875 0-0.28906 0.082031-0.51562 0.25-0.67188 0.17578-0.16406 0.42188-0.25 0.73438-0.25z"/>
  </symbol>
  <symbol id="f" overflow="visible">
   <path d="m2.0625-1.0781v1.0781h-0.57812v-0.82812c0-0.15625-0.007813-0.25781-0.015625-0.3125 0-0.0625-0.011719-0.10938-0.03125-0.14062-0.023438-0.03125-0.054688-0.054688-0.09375-0.078125-0.03125-0.019531-0.074219-0.03125-0.125-0.03125-0.11719 0-0.21094 0.046875-0.28125 0.14062-0.0625 0.085938-0.09375 0.21094-0.09375 0.375v0.875h-0.57812v-1.7812h0.57812v0.26562c0.082031-0.10156 0.17188-0.17578 0.26562-0.21875 0.10156-0.050781 0.21094-0.078125 0.32812-0.078125 0.19531 0 0.34766 0.0625 0.45312 0.1875 0.11328 0.125 0.17188 0.30859 0.17188 0.54688z"/>
  </symbol>
  <symbol id="r" overflow="visible">
   <path d="m1.4375-2.4688v0.375h-0.3125c-0.085938 0-0.14062 0.015625-0.17188 0.046875-0.03125 0.023437-0.046875 0.070313-0.046875 0.14062v0.125h0.48438v0.40625h-0.48438v1.375h-0.5625v-1.375h-0.28125v-0.40625h0.28125v-0.125c0-0.1875 0.050781-0.32812 0.15625-0.42188 0.11328-0.09375 0.28125-0.14062 0.5-0.14062z"/>
  </symbol>
  <symbol id="q" overflow="visible">
   <path d="m1.9219-1.4844c0.070313-0.10156 0.15625-0.17969 0.25-0.23438 0.10156-0.0625 0.21094-0.09375 0.32812-0.09375 0.20703 0 0.36328 0.0625 0.46875 0.1875 0.10156 0.125 0.15625 0.30859 0.15625 0.54688v1.0781h-0.5625v-0.92188-0.046875-0.0625c0-0.125-0.023438-0.21094-0.0625-0.26562-0.03125-0.0625-0.089844-0.09375-0.17188-0.09375-0.10547 0-0.1875 0.046875-0.25 0.14062-0.0625 0.085938-0.09375 0.21094-0.09375 0.375v0.875h-0.57812v-0.92188c0-0.19531-0.015625-0.32031-0.046875-0.375-0.03125-0.0625-0.089844-0.09375-0.17188-0.09375-0.11719 0-0.20312 0.046875-0.26562 0.14062-0.054687 0.085938-0.078125 0.21094-0.078125 0.375v0.875h-0.57812v-1.7812h0.57812v0.26562c0.070312-0.10156 0.14844-0.17578 0.23438-0.21875 0.09375-0.050781 0.19141-0.078125 0.29688-0.078125 0.125 0 0.23438 0.03125 0.32812 0.09375 0.09375 0.054688 0.16406 0.13281 0.21875 0.23438z"/>
  </symbol>
  <symbol id="p" overflow="visible">
   <path d="m2.0625-1.0781v1.0781h-0.57812v-0.82812c0-0.15625-0.007813-0.25781-0.015625-0.3125 0-0.0625-0.011719-0.10938-0.03125-0.14062-0.023438-0.03125-0.054688-0.054688-0.09375-0.078125-0.03125-0.019531-0.074219-0.03125-0.125-0.03125-0.11719 0-0.21094 0.046875-0.28125 0.14062-0.0625 0.085938-0.09375 0.21094-0.09375 0.375v0.875h-0.57812v-2.4688h0.57812v0.95312c0.082031-0.10156 0.17188-0.17578 0.26562-0.21875 0.10156-0.050781 0.21094-0.078125 0.32812-0.078125 0.19531 0 0.34766 0.0625 0.45312 0.1875 0.11328 0.125 0.17188 0.30859 0.17188 0.54688z"/>
  </symbol>
  <symbol id="o" overflow="visible">
   <path d="m0.25-0.6875v-1.0938h0.57812v0.1875 0.35938 0.28125 0.3125c0.007813 0.0625 0.023437 0.10938 0.046875 0.14062 0.019531 0.042969 0.046875 0.074219 0.078125 0.09375 0.039063 0.011719 0.085937 0.015625 0.14062 0.015625 0.11328 0 0.20312-0.039063 0.26562-0.125 0.070313-0.09375 0.10938-0.22266 0.10938-0.39062v-0.875h0.57812v1.7812h-0.57812v-0.25c-0.085938 0.09375-0.17188 0.16797-0.26562 0.21875s-0.19922 0.078125-0.3125 0.078125c-0.21094 0-0.37109-0.0625-0.48438-0.1875-0.10547-0.125-0.15625-0.30469-0.15625-0.54688z"/>
  </symbol>
  <symbol id="n" overflow="visible">
   <path d="m0.29688-2.375h1.0156c0.30078 0 0.53125 0.070312 0.6875 0.20312 0.16406 0.13672 0.25 0.32812 0.25 0.57812s-0.085938 0.44531-0.25 0.57812c-0.15625 0.125-0.38672 0.1875-0.6875 0.1875h-0.40625v0.82812h-0.60938zm0.60938 0.45312v0.65625h0.34375c0.11328 0 0.20312-0.023437 0.26562-0.078125 0.070313-0.0625 0.10938-0.14453 0.10938-0.25 0-0.10156-0.039062-0.17969-0.10938-0.23438-0.0625-0.0625-0.15234-0.09375-0.26562-0.09375z"/>
  </symbol>
  <symbol id="m" overflow="visible">
   <path d="m0.26562-1.7812h0.57812v1.75c0 0.23828-0.058594 0.42188-0.17188 0.54688-0.11719 0.125-0.28125 0.1875-0.5 0.1875h-0.28125v-0.375h0.09375c0.11328 0 0.1875-0.027344 0.21875-0.078125 0.039063-0.042969 0.0625-0.13672 0.0625-0.28125zm0-0.6875h0.57812v0.46875h-0.57812z"/>
  </symbol>
 </defs>
 <g>
  <path d="m268.89 27.254c-3.2461-0.64844-7.7852 3.2461-10.383 11.68-7.7852 26.605 4.543 39.582 27.254 49.316 9.7344 4.543 18.816 7.7852 24.008 7.7852 5.8398 0 7.7852-3.2461 2.5938-9.0859-4.543-5.1914-16.223-12.977-24.008-20.766-7.7852-8.4375-11.031-16.871-12.977-24.008-2.5938-7.1367-3.8945-13.625-6.4883-14.926z" fill-rule="evenodd"/>
  <path d="m322.75 93.441c3.2461-3.2461 13.625-6.4883 20.766-12.977 7.7852-6.4883 9.0859-27.902 11.031-27.902 14.277 0 4.543 63.594-25.957 49.965-4.543-1.9453-9.0859-5.8398-5.8398-9.0859z" fill-rule="evenodd"/>
  <path d="m322.1 41.531c-1.2969-3.2461-7.1367-7.1367-12.977-9.7344-21.414-9.0859-30.5 15.574-14.277 24.656 10.383 5.1914 7.1367-7.7852 22.062-10.383 2.5938-0.64844 6.4883-1.9453 5.1914-4.543z" fill-rule="evenodd"/>
  <path d="m310.42 70.082c-1.9453-6.4883 18.816-4.543 17.52-29.848 0-2.5938 0-2.5938 2.5938-1.9453 1.9453 1.2969 5.8398 3.2461 9.0859 5.8398 8.4375 8.4375 8.4375 22.711 0.64844 31.148-8.4375 9.0859-27.254 4.543-29.848-5.1914z" fill-rule="evenodd"/>
  <path d="m282.52 21.414c9.7344-11.68 46.07-20.117 59.699-15.574 12.328 3.8945 19.469 18.168 24.008 29.199 3.2461 6.4883 5.1914 12.977 7.1367 17.52 1.9453 4.543 3.2461 7.7852 0 5.8398-9.0859-5.8398-42.18-27.902-48.668-30.5-31.797-11.031-22.062-1.2969-41.531 0-2.5938 0.64844-3.2461-3.2461-0.64844-6.4883z" fill-rule="evenodd"/>
  <path d="m235.79 22.062c-6.4883 5.8398-15.574 18.168-15.574 27.254 0 16.223 11.031 22.062 25.309 25.309 4.543 1.2969 7.7852 1.9453 7.7852-1.9453 0-11.68-14.277-33.742 4.543-47.371 7.7852-5.1914 18.816-9.7344 27.254-11.68 12.977-3.8945-33.742-5.8398-49.316 8.4375z" fill-rule="evenodd"/>
  <path d="m333.13 114.86c-2.5938-7.1367-33.094-13.625-41.531-15.574-11.68-3.8945-50.613-27.902-64.891-22.062-5.1914 1.9453 18.816 24.008 21.414 25.957 11.031 7.7852 28.551 14.926 42.18 17.52 6.4883 1.2969 12.977 1.9453 18.168 1.2969 3.2461 0 25.957-4.543 24.656-7.1367z" fill-rule="evenodd"/>
  <path d="m370.12 73.324c1.9453-5.1914 3.2461-6.4883 5.8398-6.4883 8.4375 0.64844 27.902 12.977 24.656 23.359-2.5938 7.7852-10.383 11.68-18.168 14.926-7.7852 2.5938-28.551 14.277-35.691 11.031-4.543-1.9453 18.816-29.199 23.359-42.828z" fill-rule="evenodd"/>
  <path d="m350 127.83c-3.2461 3.2461-12.328 7.7852-22.062 12.328-10.383 3.8945-42.828 15.574-53.211 13.625-6.4883-1.2969-11.68-6.4883-18.168-11.031-29.199-18.168-59.699-41.531-40.879-77.867 0.64844-1.9453 2.5938 0.64844 3.2461 2.5938 1.2969 2.5938 1.2969 4.543 2.5938 9.0859 13.625 46.723 70.082 55.156 111.61 47.371 5.1914-0.64844 9.0859-0.64844 12.328 0 3.8945 0 7.1367 1.2969 4.543 3.8945z" fill-rule="evenodd"/>
  <path d="m392.18 61.645c-1.2969-5.8398 31.148 4.543 35.691 7.7852 3.8945 1.9453 8.4375 5.8398 8.4375 9.0859 0 5.1914-20.117 27.902-24.656 33.742-4.543 7.7852-9.0859 15.574-14.277 21.414-10.383 11.031-58.402 24.656-73.973 23.359-5.1914-0.64844-10.383-2.5938-8.4375-4.543 5.1914-5.1914 27.902-7.1367 37.637-17.52 10.383-11.68 2.5938-11.68 22.062-18.816 7.7852-3.2461 22.711-7.7852 27.902-15.574 15.574-22.711-9.0859-33.742-10.383-38.934z" fill-rule="evenodd"/>
  <path d="m208.54 55.805c-1.9453 0-15.574 0-31.148 9.7344-38.934 24.008-25.957 44.773 8.4375 69.434 7.1367 4.543 60.348 14.277 62.293 11.68 3.2461-5.1914-35.039-25.957-41.531-38.285-22.711-40.23-0.64844-30.5 5.8398-44.773 1.2969-3.8945-1.9453-8.4375-3.8945-7.7852z" fill-rule="evenodd"/>
  <path d="m294.84 164.17c-0.64844 4.543 4.543 12.328 9.0859 18.168 10.383 12.328 23.359 10.383 38.285 9.0859 18.168-1.9453 36.34-7.7852 54.508-8.4375 5.1914 0 24.656 0.64844 27.254-1.9453 5.1914-4.543-3.8945-20.766-8.4375-24.656-14.277-14.277-27.902-5.8398-44.125-0.64844-36.988 11.68-38.934 1.9453-68.785 3.2461-3.8945 0-7.1367 1.2969-7.7852 5.1914z" fill-rule="evenodd"/>
  <path d="m285.76 162.23c-14.277-5.8398-23.359-13.625-38.285-11.031-9.0859 1.2969-18.816-3.2461-26.605-0.64844-8.4375 2.5938-16.871 16.871-20.117 24.656-4.543 10.383 10.383 24.656 16.871 31.797 21.414 21.414 55.805 25.309 82.41 11.68 3.2461-1.9453 25.309-18.816 24.656-19.469-1.2969-3.2461-24.008-5.8398-31.148-20.117-1.9453-3.8945-3.8945-15.574-7.7852-16.871z" fill-rule="evenodd"/>
  <path d="m325.34 210.89c-1.2969 0.64844-6.4883-0.64844-5.8398 1.9453 14.926 70.73 27.902 127.83 54.508 194.67 11.68 29.848 27.254 56.453 45.422 83.707 12.977 20.117 36.34 52.562 55.156 67.484 5.1914 3.8945 8.4375-3.2461 11.031-7.1367 1.9453-3.2461-56.453-72.027-62.293-81.113-24.008-35.691-38.934-66.188-54.508-105.77-21.414-51.262-27.254-90.195-40.23-144.05-1.9453-5.8398-2.5938-9.7344-3.2461-9.7344z" fill-rule="evenodd"/>
  <path d="m327.29 306.28c-2.5938-5.8398-7.7852-15.574-10.383-19.469-0.64844 0-19.469-11.68-21.414-12.977-3.8945-1.9453-3.8945 0.64844-7.7852 1.2969-3.2461 1.2969-10.383 0.64844-12.977 1.2969-3.2461 0-1.9453 1.9453-3.8945 3.8945-2.5938 1.9453-8.4375 4.543-9.7344 6.4883-1.9453 2.5938 1.2969 3.8945-1.2969 5.8398-1.9453 2.5938-9.0859 5.1914-11.031 7.7852-1.9453 1.9453 0.64844 3.8945-0.64844 5.8398-1.2969 2.5938-7.7852 5.1914-9.0859 7.1367-1.2969 2.5938 1.9453 4.543 0 8.4375-1.2969 3.2461-7.7852 9.0859-11.031 12.977-2.5938 3.8945-1.2969 6.4883 1.9453 5.8398 2.5938-0.64844 6.4883-4.543 8.4375-5.1914 1.9453-0.64844 1.2969 2.5938 4.543 3.2461 3.8945 0.64844 11.68-0.64844 14.277 0 3.2461 0.64844 0.64844 4.543 3.8945 4.543 2.5938 0.64844 11.031-1.2969 14.277-1.2969 3.2461 0.64844 1.9453 3.2461 6.4883 3.2461 4.543 0.64844 14.926-2.5938 18.816-1.9453 3.8945 0 1.2969 3.2461 4.543 1.9453 3.8945-0.64844 14.277-5.8398 18.816-6.4883 4.543-1.2969 3.8945 1.9453 5.8398 0 1.9453-1.2969 7.7852-7.7852 8.4375-12.328 1.2969-5.1914-7.7852-13.625-11.031-20.117z" fill-rule="evenodd"/>
  <path d="m325.99 355.6c19.469-18.816 29.199 15.574 23.359 27.254-1.2969 2.5938-3.2461 0-4.543 3.2461s-1.9453 12.977-3.2461 16.223c-1.9453 3.2461-3.8945 0.64844-4.543 3.8945-0.64844 3.2461 0 11.68-0.64844 14.926-0.64844 3.2461-3.2461 0.64844-3.8945 5.1914-1.2969 4.543-1.9453 15.574-3.8945 17.52-2.5938 2.5938-7.1367-3.2461-9.7344-4.543-2.5938-1.2969-3.2461 2.5938-5.1914 0-1.2969-2.5938-4.543-11.68-6.4883-14.926-2.5938-2.5938-4.543 0.64844-6.4883-1.9453-1.2969-2.5938-1.9453-10.383-3.8945-12.977-1.9453-1.9453-5.1914 1.2969-6.4883-1.9453-1.2969-2.5938-1.2969-11.68-1.9453-15.574-0.64844-3.8945-3.2461-2.5938-2.5938-6.4883 0.64844-3.8945 3.2461-13.625 3.2461-16.871-1.9453-19.469 20.117-17.52 32.445-10.383 1.2969 1.2969 2.5938-0.64844 4.543-2.5938z" fill-rule="evenodd"/>
  <path d="m355.19 303.68c0-12.328 1.2969-16.223 9.0859-22.711 2.5938-2.5938 6.4883-8.4375 9.0859-11.031 3.2461-2.5938 4.543-0.64844 7.7852-2.5938 3.2461-1.9453 8.4375-7.1367 10.383-7.7852 2.5938-1.2969 2.5938 1.9453 5.8398 2.5938 3.2461 0 9.7344-2.5938 12.328-2.5938s1.2969 3.2461 3.2461 3.8945c1.9453 0.64844 7.1367-1.9453 11.68-2.5938 3.8945-0.64844 18.168 1.2969 15.574 6.4883-1.9453 3.8945-12.977 8.4375-9.0859 11.031 1.2969 1.2969 5.1914 2.5938 4.543 5.8398-1.2969 2.5938-6.4883 7.7852-6.4883 10.383 0 2.5938 5.1914 2.5938 3.8945 5.8398-1.2969 3.2461-8.4375 9.0859-9.0859 12.977-0.64844 3.8945 5.1914 6.4883 2.5938 9.0859-1.9453 2.5938-12.977 5.8398-16.223 7.7852-3.8945 2.5938-0.64844 3.8945-1.9453 5.8398-5.1914 8.4375-14.277 11.68-22.062 7.1367-19.469-12.328-10.383 1.2969-13.625-18.168-1.2969-5.1914-16.871-6.4883-17.52-21.414z" fill-rule="evenodd"/>
  <use x="72.269531" y="569.734375" xlink:href="#v"/>
  <use x="74.652344" y="569.734375" xlink:href="#d"/>
  <use x="76.253906" y="569.734375" xlink:href="#a"/>
  <use x="78.453125" y="569.734375" xlink:href="#l"/>
  <use x="80.640625" y="569.734375" xlink:href="#c"/>
  <use x="82.191406" y="569.734375" xlink:href="#a"/>
  <use x="84.394531" y="569.734375" xlink:href="#k"/>
  <use x="87.84375" y="569.734375" xlink:href="#j"/>
  <use x="90.167969" y="569.734375" xlink:href="#i"/>
  <use x="93.414062" y="569.734375" xlink:href="#h"/>
  <use x="95.921875" y="569.734375" xlink:href="#e"/>
  <use x="98.640625" y="569.734375" xlink:href="#u"/>
  <use x="100.851562" y="569.734375" xlink:href="#t"/>
  <use x="103.609375" y="569.734375" xlink:href="#e"/>
  <use x="107.457031" y="569.734375" xlink:href="#s"/>
  <use x="108.566406" y="569.734375" xlink:href="#g"/>
  <use x="110.492188" y="569.734375" xlink:href="#b"/>
  <use x="112.71875" y="569.734375" xlink:href="#f"/>
  <use x="72.269531" y="572.976562" xlink:href="#r"/>
  <use x="73.683594" y="572.976562" xlink:href="#d"/>
  <use x="75.28125" y="572.976562" xlink:href="#b"/>
  <use x="77.511719" y="572.976562" xlink:href="#q"/>
  <use x="82.023438" y="572.976562" xlink:href="#c"/>
  <use x="83.574219" y="572.976562" xlink:href="#p"/>
  <use x="85.882812" y="572.976562" xlink:href="#a"/>
  <use x="89.210938" y="572.976562" xlink:href="#e"/>
  <use x="91.929688" y="572.976562" xlink:href="#b"/>
  <use x="94.15625" y="572.976562" xlink:href="#o"/>
  <use x="96.46875" y="572.976562" xlink:href="#f"/>
  <use x="99.90625" y="572.976562" xlink:href="#n"/>
  <use x="102.285156" y="572.976562" xlink:href="#d"/>
  <use x="103.882812" y="572.976562" xlink:href="#b"/>
  <use x="106.113281" y="572.976562" xlink:href="#m"/>
  <use x="107.226562" y="572.976562" xlink:href="#a"/>
  <use x="109.425781" y="572.976562" xlink:href="#g"/>
  <use x="111.347656" y="572.976562" xlink:href="#c"/>
 </g>
</svg>
