<svg xmlns="http://www.w3.org/2000/svg" xmlns:xlink="http://www.w3.org/1999/xlink" version="1.1" x="0px" y="0px" viewBox="0 0 100 125" enable-background="new 0 0 100 100" xml:space="preserve"><path d="M65.6,29.7c-2.5-2-5.1-3.7-8.1-4.7c-5.8-1.9-10-2.2-15.8-0.4c-1.9,0.5-4.7,1.9-6.4,2.9c-7.6,4.9-10.3,12.2-10.1,20.9  c0.2,7.9,4.2,14.2,11.2,17.1c8.3,3.5,20.8,0,25.8-7.6c4.3-6.5,3.6-16.6-4.4-20.6c-7.7-3.9-18.6-0.7-21.4,6.4  c-1.8,4.3,0.5,10.8,5.7,12c3.5,0.8,7.9-0.6,10-3.1c1.6-2,1.4-5.5-0.8-6.8c-0.6-0.3-1.3-0.4-2-0.1c-0.4,0.2-0.8,0.5-1,0.9  c-0.5,0.8-0.6,1.6-1,2.5c-1,1.9-4.3,2.1-5.4,0c-1.1-2.3-0.4-4.3,1.1-5.7c1.4-1.2,3-1.9,4.7-2.6c3.3-1.4,9.8,0.6,11.4,4.4  c1.6,3.8-0.5,8.4-3.2,11.3c-2.9,3.2-7,4.7-11.1,4.5c-5.8-0.2-8.6-1.1-11.7-5.8c-1.8-2.6-2.2-6.9-2-10c0.2-4.6,2.4-7.5,4.7-10.3  c4.2-4.7,12.4-5.7,18.4-4.6c5,0.9,8.9,3.6,11.7,7.6c7.1,10.1,4.7,20.9-4.1,28.6c-3.2,2.8-9.8,5.4-15.6,5.4c-2.1,0-6.2-0.9-7.4,0.5  c-2.2,2.8,3.5,4.1,6.3,4.1c17.4,0,27.5-12.2,29.2-21.4C76.4,45.6,73.3,35.8,65.6,29.7z"/><path d="M50.5,95c2.8-0.4,2.3-5.6,2.3-7.7c0-2.5-0.5-5.5-2.1-5.9c-1.3-0.3-2.3,0.2-2.7,1.6c-0.3,1-0.4,2.5-0.2,3.4  c0.2,1.1,0.2,2.3,0.1,3.4C47.6,91.7,47.4,95.4,50.5,95z"/><path d="M28,82.8c-0.5,1.3-1.3,3.7-0.4,4.8c2.8,3.4,8.6-5.7,6.5-8.1C31.5,76.5,28.9,80.3,28,82.8z"/><path d="M12.9,71.8c2.3,1.1,5,0.1,7.1-1c1.4-0.8,6.6-3.8,3.3-6C20.8,63.3,9,69.9,12.9,71.8z"/><path d="M70.1,78.7c-0.8-1-1.6-1.8-3.1-1.8c-0.7,0-1.5,0.5-1.6,1.2c-0.2,1.5,0.7,3.3,1.5,4.6c0.8,1.3,3.5,4.7,5.4,4.3  c1.6-0.4,1.6-1.6,1.6-2.1c0-0.8-0.3-1.8-0.7-2.5C72.3,81.1,71.1,79.9,70.1,78.7z"/><path d="M87.2,72c3.3-1.5-0.3-4-1.9-5c-1.5-1-4.1-3.3-6.4-2.5C74.3,66.3,82.8,74,87.2,72z"/><path d="M19.6,48.9c-0.4-2.8-5.6-2.3-7.7-2.3c-2.5,0-5.5,0.5-5.9,2.1C5.7,50,6.3,51,7.6,51.5c1,0.3,2.5,0.4,3.4,0.2  c1.1-0.2,2.3-0.2,3.4-0.1C16.4,51.7,20.1,51.9,19.6,48.9z"/><path d="M18.3,27.3c-1.3-0.5-3.7-1.3-4.8-0.4c-3.4,2.8,5.7,8.6,8.1,6.5C24.6,30.8,20.8,28.3,18.3,27.3z"/><path d="M27,11.2c-1.1,2.3-0.3,4.1,0.8,6.1c0.8,1.4,3.8,6.6,6,3.3C35.2,18.2,29.4,8.3,27,11.2z"/><path d="M93.8,48.8c-1.5-2-4.4-2.4-6.8-2.3c-1.7,0.1-7.6,0.4-5.7,3.8C82.9,52.7,96.3,52.2,93.8,48.8z"/><path d="M46.5,11.7c0.1,1.8,0.4,4.9,1.8,6c4,3.2,5.2-9.7,2.2-12C46.9,3,46.3,8.4,46.5,11.7z"/><path d="M79.4,29.1c-1,0.8-1.8,1.6-1.8,3.1c0,0.7,0.5,1.5,1.2,1.6c1.5,0.2,3.3-0.7,4.6-1.5s4.7-3.5,4.3-5.4  c-0.4-1.6-1.6-1.6-2.1-1.6c-0.8,0-1.8,0.3-2.5,0.7C81.8,27,80.6,28.2,79.4,29.1z"/><path d="M72.5,11.4c-1.5-3.3-4,0.3-5,1.9c-1,1.5-3.3,4.1-2.5,6.4C66.9,24.3,74.6,15.8,72.5,11.4z"/><text x="0" y="115" fill="#000000" font-size="5px" font-weight="bold" font-family="'Helvetica Neue', Helvetica, Arial-Unicode, Arial, Sans-serif">Created by Loren Klein</text><text x="0" y="120" fill="#000000" font-size="5px" font-weight="bold" font-family="'Helvetica Neue', Helvetica, Arial-Unicode, Arial, Sans-serif">from the Noun Project</text></svg>