<?xml version="1.0" encoding="UTF-8"?>
<svg width="700pt" height="700pt" version="1.1" viewBox="0 0 700 700" xmlns="http://www.w3.org/2000/svg" xmlns:xlink="http://www.w3.org/1999/xlink">
 <defs>
  <symbol id="k" overflow="visible">
   <path d="m38.344-2.2969c-1.9805 1.0312-4.043 1.8086-6.1875 2.3281-2.1367 0.51953-4.3711 0.78125-6.7031 0.78125-6.9492 0-12.453-1.9414-16.516-5.8281-4.0625-3.8828-6.0938-9.1484-6.0938-15.797 0-6.6758 2.0312-11.957 6.0938-15.844 4.0625-3.8828 9.5664-5.8281 16.516-5.8281 2.332 0 4.5664 0.26562 6.7031 0.79688 2.1445 0.52344 4.207 1.293 6.1875 2.3125v8.6406c-1.9922-1.3633-3.9531-2.3633-5.8906-3-1.9375-0.63281-3.9805-0.95312-6.125-0.95312-3.8438 0-6.8672 1.2344-9.0625 3.7031-2.1992 2.4609-3.2969 5.8516-3.2969 10.172 0 4.3047 1.0977 7.6836 3.2969 10.141 2.1953 2.4609 5.2188 3.6875 9.0625 3.6875 2.1445 0 4.1875-0.31641 6.125-0.95312 1.9375-0.63281 3.8984-1.6289 5.8906-2.9844z"/>
  </symbol>
  <symbol id="h" overflow="visible">
   <path d="m28.062-22.781c-0.875-0.40625-1.75-0.70703-2.625-0.90625-0.86719-0.19531-1.7344-0.29688-2.6094-0.29688-2.5742 0-4.5547 0.82812-5.9375 2.4844-1.3867 1.6484-2.0781 4.0078-2.0781 7.0781v14.422h-10v-31.297h10v5.1406c1.2812-2.0508 2.7539-3.5469 4.4219-4.4844 1.6758-0.9375 3.6758-1.4062 6-1.4062 0.33203 0 0.69141 0.015625 1.0781 0.046875 0.39453 0.023438 0.96875 0.078125 1.7188 0.17188z"/>
  </symbol>
  <symbol id="c" overflow="visible">
   <path d="m36.047-15.734v2.8438h-23.391c0.23828 2.3555 1.082 4.1211 2.5312 5.2969 1.457 1.168 3.4922 1.75 6.1094 1.75 2.1016 0 4.2578-0.3125 6.4688-0.9375 2.207-0.625 4.4727-1.5664 6.7969-2.8281v7.7031c-2.3672 0.89844-4.7305 1.5742-7.0938 2.0312-2.3672 0.45703-4.7305 0.6875-7.0938 0.6875-5.668 0-10.074-1.4375-13.219-4.3125-3.1367-2.8828-4.7031-6.9258-4.7031-12.125 0-5.1016 1.5391-9.1133 4.625-12.031 3.082-2.9258 7.3281-4.3906 12.734-4.3906 4.9141 0 8.8477 1.4805 11.797 4.4375 2.957 2.9609 4.4375 6.918 4.4375 11.875zm-10.281-3.3281c0-1.8945-0.55859-3.4258-1.6719-4.5938-1.1055-1.1641-2.5469-1.75-4.3281-1.75-1.9375 0-3.5156 0.54688-4.7344 1.6406-1.2109 1.0859-1.9648 2.6523-2.2656 4.7031z"/>
  </symbol>
  <symbol id="a" overflow="visible">
   <path d="m18.828-14.078c-2.0859 0-3.6523 0.35547-4.7031 1.0625-1.0547 0.69922-1.5781 1.7422-1.5781 3.125 0 1.2617 0.42188 2.25 1.2656 2.9688 0.85156 0.71875 2.0352 1.0781 3.5469 1.0781 1.875 0 3.4531-0.67188 4.7344-2.0156 1.2891-1.3516 1.9375-3.0469 1.9375-5.0781v-1.1406zm15.297-3.7812v17.859h-10.094v-4.6406c-1.3438 1.9062-2.8555 3.293-4.5312 4.1562-1.6797 0.86328-3.7148 1.2969-6.1094 1.2969-3.2422 0-5.875-0.94141-7.9062-2.8281-2.0234-1.8945-3.0312-4.3516-3.0312-7.375 0-3.6641 1.2578-6.3516 3.7812-8.0625 2.5312-1.7188 6.5-2.5781 11.906-2.5781h5.8906v-0.78125c0-1.5938-0.625-2.7539-1.875-3.4844-1.2422-0.73828-3.1836-1.1094-5.8281-1.1094-2.1484 0-4.1406 0.21484-5.9844 0.64062-1.8438 0.42969-3.5586 1.0742-5.1406 1.9375v-7.6406c2.1328-0.51953 4.2812-0.91016 6.4375-1.1719 2.1641-0.26953 4.332-0.40625 6.5-0.40625 5.6445 0 9.7188 1.1172 12.219 3.3438 2.5078 2.2188 3.7656 5.8359 3.7656 10.844z"/>
  </symbol>
  <symbol id="g" overflow="visible">
   <path d="m15.734-40.188v8.8906h10.312v7.1562h-10.312v13.266c0 1.4609 0.28516 2.4453 0.85938 2.9531 0.58203 0.51172 1.7266 0.76562 3.4375 0.76562h5.1562v7.1562h-8.5938c-3.9492 0-6.7461-0.82031-8.3906-2.4688-1.6484-1.6562-2.4688-4.457-2.4688-8.4062v-13.266h-4.9844v-7.1562h4.9844v-8.8906z"/>
  </symbol>
  <symbol id="f" overflow="visible">
   <path d="m26.109-26.719v-16.766h10.047v43.484h-10.047v-4.5312c-1.3867 1.8438-2.9062 3.1992-4.5625 4.0625-1.6562 0.85156-3.5742 1.2812-5.75 1.2812-3.8672 0-7.0391-1.5312-9.5156-4.5938-2.4688-3.0703-3.7031-7.0195-3.7031-11.844 0-4.8203 1.2344-8.7656 3.7031-11.828 2.4766-3.0625 5.6484-4.5938 9.5156-4.5938 2.1562 0 4.0664 0.43359 5.7344 1.2969 1.6641 0.86719 3.1914 2.2109 4.5781 4.0312zm-6.6094 20.266c2.1445 0 3.7812-0.78125 4.9062-2.3438 1.1328-1.5703 1.7031-3.8477 1.7031-6.8281 0-2.9766-0.57031-5.25-1.7031-6.8125-1.125-1.5625-2.7617-2.3438-4.9062-2.3438-2.1172 0-3.7422 0.78125-4.875 2.3438-1.125 1.5625-1.6875 3.8359-1.6875 6.8125 0 2.9805 0.5625 5.2578 1.6875 6.8281 1.1328 1.5625 2.7578 2.3438 4.875 2.3438z"/>
  </symbol>
  <symbol id="e" overflow="visible">
   <path d="m21.469-6.4531c2.1328 0 3.7656-0.78125 4.8906-2.3438 1.1328-1.5703 1.7031-3.8477 1.7031-6.8281 0-2.9766-0.57031-5.25-1.7031-6.8125-1.125-1.5625-2.7578-2.3438-4.8906-2.3438-2.1484 0-3.793 0.78906-4.9375 2.3594-1.1484 1.5742-1.7188 3.8398-1.7188 6.7969 0 2.9688 0.57031 5.2422 1.7188 6.8125 1.1445 1.5742 2.7891 2.3594 4.9375 2.3594zm-6.6562-20.266c1.375-1.8203 2.8984-3.1641 4.5781-4.0312 1.6758-0.86328 3.6094-1.2969 5.7969-1.2969 3.8516 0 7.0195 1.5312 9.5 4.5938 2.4766 3.0625 3.7188 7.0078 3.7188 11.828 0 4.8242-1.2422 8.7734-3.7188 11.844-2.4805 3.0625-5.6484 4.5938-9.5 4.5938-2.1875 0-4.1211-0.43359-5.7969-1.2969-1.6797-0.86328-3.2031-2.2109-4.5781-4.0469v4.5312h-10v-43.484h10z"/>
  </symbol>
  <symbol id="d" overflow="visible">
   <path d="m0.70312-31.297h10l8.4062 21.234 7.1562-21.234h10.016l-13.172 34.266c-1.3242 3.4766-2.8672 5.9102-4.625 7.2969-1.7617 1.3945-4.0859 2.0938-6.9688 2.0938h-5.7812v-6.5781h3.125c1.6953 0 2.9297-0.27344 3.7031-0.8125 0.76953-0.54297 1.3672-1.5117 1.7969-2.9062l0.28125-0.85938z"/>
  </symbol>
  <symbol id="b" overflow="visible">
   <path d="m36.281-19.062v19.062h-10.062v-14.594c0-2.6953-0.0625-4.5547-0.1875-5.5781-0.125-1.0312-0.33594-1.7852-0.625-2.2656-0.39844-0.65625-0.93359-1.1641-1.6094-1.5312-0.66797-0.36328-1.4297-0.54688-2.2812-0.54688-2.0859 0-3.7266 0.80859-4.9219 2.4219-1.1875 1.6172-1.7812 3.8438-1.7812 6.6875v15.406h-10v-31.297h10v4.5781c1.5078-1.8203 3.1094-3.1641 4.7969-4.0312 1.6953-0.86328 3.5703-1.2969 5.625-1.2969 3.6133 0 6.3594 1.1094 8.2344 3.3281 1.875 2.2109 2.8125 5.4297 2.8125 9.6562z"/>
  </symbol>
  <symbol id="j" overflow="visible">
   <path d="m4.8125-43.484h10v23.672l11.516-11.484h11.625l-15.281 14.359 16.484 16.938h-12.125l-12.219-13.047v13.047h-10z"/>
  </symbol>
  <symbol id="i" overflow="visible">
   <path d="m26.109-5.3125c-1.3867 1.8242-2.9062 3.168-4.5625 4.0312-1.6562 0.85547-3.5742 1.2812-5.75 1.2812-3.8242 0-6.9844-1.5039-9.4844-4.5156-2.4922-3.0078-3.7344-6.8438-3.7344-11.5 0-4.6758 1.2422-8.5078 3.7344-11.5 2.5-2.9883 5.6602-4.4844 9.4844-4.4844 2.1758 0 4.0938 0.43359 5.75 1.2969 1.6562 0.85547 3.1758 2.2031 4.5625 4.0469v-4.6406h10.047v28.141c0 5.0312-1.5898 8.875-4.7656 11.531-3.168 2.6562-7.7734 3.9844-13.812 3.9844-1.9609 0-3.8516-0.15234-5.6719-0.45312-1.8242-0.30469-3.6562-0.76172-5.5-1.375v-7.7969c1.75 1.0078 3.4609 1.7578 5.1406 2.25 1.6758 0.5 3.3594 0.75 5.0469 0.75 3.2812 0 5.6875-0.71875 7.2188-2.1562s2.2969-3.6797 2.2969-6.7344zm-6.6094-19.469c-2.0625 0-3.6719 0.76562-4.8281 2.2969-1.1562 1.5234-1.7344 3.6797-1.7344 6.4688 0 2.875 0.55469 5.0547 1.6719 6.5312 1.125 1.4805 2.7539 2.2188 4.8906 2.2188 2.0938 0 3.7188-0.75781 4.875-2.2812 1.1562-1.5312 1.7344-3.6875 1.7344-6.4688 0-2.7891-0.57812-4.9453-1.7344-6.4688-1.1562-1.5312-2.7812-2.2969-4.875-2.2969z"/>
  </symbol>
 </defs>
 <g>
  <path d="m408.26 517.32c11.445 4.6914 38.227 13.047 54.137-6.4102 3.1328-4.6523 8.9492-6.6992 14.305-5.0352 15.793 5.4922 48.527 12.133 66.613-17.742v0.003906c2.3672-4.0195 6.793-6.3672 11.445-6.0664 7.0977 0.6875 16.824-0.80078 17.855-13.277 0.26562-4.6719 3.1445-8.7891 7.4375-10.645 5.0469-1.7305 8.6797-6.1602 9.3867-11.445 0.87891-4.0898 3.6367-7.5234 7.4414-9.2695 6.875-3.0977 12.191-8.8672 14.719-15.977 2.5273-7.1055 2.0469-14.934-1.3281-21.68-1.8555-5.3867 0.28516-11.34 5.1484-14.309 7.668-3.6836 13.559-10.262 16.371-18.293 2.8125-8.0273 2.3164-16.848-1.3789-24.512-2.2227-4.9609-1.0781-10.789 2.8633-14.535 7.5547-7.2109 22.891-25.754 9.8438-41.434-62.949-24.723-153.48-36.738-222.27-42.461z"/>
  <path d="m421.88 193.76c94.664 8.6172 188 28.246 278.12 58.484-0.007812-2.5391-0.27734-5.0703-0.80078-7.5547-1.375-6.2969-3.3203-14.422-6.2969-24.492-8.2188-27.848-20.398-54.363-36.164-78.746-8.3984-13.223-20.277-23.879-34.34-30.785-31.703-15.109-99-38.914-221.81-48.301 9.582 41.863 16.766 84.242 21.516 126.93-0.34375 1.4883-0.34375 2.9766-0.22656 4.4648z"/>
  <path d="m390.86 66.598c-38.684-3.3203-80.117-2.8633-93.965-2.5195l-13.164 132.2v8.0117l2.4023 34.91 34.336 272.4h0.003906c24.727 12.285 53.785 12.285 78.512 0l13.051-292.66c0.66016-9.5664 0.66016-19.164 0-28.73-4.7266-41.566-11.797-82.836-21.176-123.61z"/>
  <path d="m682.95 279.25 7.2109-11.445c1.5195-2.3242 2.7461-4.8203 3.6641-7.4414-87.977-29.367-179.03-48.566-271.37-57.227v15.453l-0.80078 15.91c75.312 6.1797 176.6 19.914 240.35 49.559v-0.003906c3.4727 1.9102 7.5273 2.4766 11.391 1.5898 3.8633-0.88672 7.2656-3.1602 9.5547-6.3945z"/>
  <path d="m276.52 244.69c-17.055 1.1445-33.422 2.7461-49.328 4.6914-1.2188 9.5156-5.6602 18.32-12.59 24.953-6.3906 5.2617-14.699 7.5898-22.891 6.4102-1.0312 0-24.836-2.7461-29.645 16.254v-0.003906c-1.6562 4.3711-5.0586 7.8516-9.3867 9.6172-5.2617 1.7656-11.023 1.2695-15.906-1.375-5.2734-0.37891-10.512 1.082-14.828 4.125-4.3203 3.0469-7.4531 7.4922-8.8633 12.586 0 0-1.0312 16.137 8.0117 19.227 2.2227 0.85938 3.5391 3.1641 3.1523 5.5156-0.38672 2.3555-2.375 4.1133-4.7578 4.2148h-1.6016c-17.168-6.0664-14.879-29.531-14.879-30.559 1.8203-7.7305 6.3906-14.535 12.852-19.145 6.4648-4.6133 14.387-6.7188 22.285-5.9219 0.60547-0.11328 1.2266-0.11328 1.832 0 2.6133 1.668 5.7969 2.207 8.8125 1.4883 1.5039-0.66016 2.7227-1.8398 3.4336-3.3203 5.3789-21.516 28.727-24.609 40.402-22.891 5.5625 1.0039 11.285-0.45703 15.68-4.0078 4.4414-4.2812 7.4414-9.8438 8.5859-15.906-59.426 8.168-117.77 22.871-173.97 43.836 1.5938 2.8633 3.6875 5.4219 6.1797 7.5547 3.5312 3.0078 6.1055 6.9844 7.4062 11.438 1.3008 4.4531 1.2734 9.1875-0.082031 13.625-2.3281 5.668-2.6055 11.969-0.78906 17.816 1.8164 5.8516 5.6172 10.883 10.746 14.23 4.2031 2.7305 6.4688 7.6211 5.8359 12.59-1.6211 6.3203-0.93359 13.008 1.9414 18.863s7.75 10.492 13.742 13.07c5.5273 2.1484 8.7812 7.8906 7.7812 13.734-1.9492 5.9336-1.3906 12.406 1.5508 17.918 2.9375 5.5117 8 9.582 14.016 11.27 4.7539 1.3594 8.2539 5.3984 8.9258 10.301 0.23438 6.7812 3.1992 13.184 8.2188 17.754 5.0234 4.5664 11.676 6.9141 18.449 6.5078 5.1445 0.039062 9.7148 3.2852 11.445 8.1289 1.6953 6.75 8.3945 10.984 15.223 9.6133 4.9219-0.88281 9.8906 1.2852 12.59 5.4922 6.8672 11.445 21.402 26.668 42.117 9.5h0.003906c4.5977-3.8633 11.309-3.8633 15.906 0 5.7227 6.1992 13.77 9.7227 22.207 9.7227 8.4336 0 16.48-3.5234 22.203-9.7227 3.543-3.5273 8.832-4.6484 13.504-2.8594l8.0117 3.0898zm-106.33 186.56c-0.38672 2.4219-2.4688 4.2109-4.9219 4.2383h-0.80078c-2.7461-0.41406-4.6445-2.9766-4.2344-5.7227 1.0938-4.5977 0.039063-9.4375-2.8594-13.164-4.8984-4.332-11.203-6.7344-17.742-6.7539h-1.832c-3.1367-1.0859-5.4805-3.7344-6.1797-6.9805-0.73047-3.4609 0.019531-7.0703 2.0625-9.957 0.98828-2.832 0.73828-5.9492-0.6875-8.5859-2-2.5195-4.8477-4.2266-8.0117-4.8047-2.75-0.41406-4.6445-2.9727-4.2344-5.7227s2.9727-4.6445 5.7227-4.2344c6.0508 0.99219 11.453 4.3711 14.992 9.3828 3.125 5.3047 3.7109 11.73 1.6016 17.512-0.16797 0.57812-0.44141 1.1211-0.80078 1.6016-0.32031 0.42578-0.58594 0.88672-0.80078 1.375 8.6055 0.4375 16.754 4.0195 22.891 10.07 5.2773 5.9648 7.4414 14.062 5.8359 21.863zm112.62 60.891h0.003906c-0.80859 3.0117-3.0273 5.4453-5.9531 6.5234-1.1367 0.1875-2.2969 0.1875-3.4336 0-4.3867-0.28906-8.6172-1.7539-12.246-4.2344-0.49219-0.33984-0.91797-0.76562-1.2578-1.2578l-4.5781-6.6367c-11.445-13.621-33.078-2.5195-33.191-2.4023v-0.003906c-5.3242 2.3477-11.387 2.3477-16.711 0-4.1914-2.2656-7.3789-6.0234-8.9297-10.527-0.35547-1.0391-0.35547-2.168 0-3.207 1.2617-4.125 0.54297-8.6055-1.9453-12.133l-0.6875-1.0312 0.003907 0.003907c-1.5938-3.4727-4.8164-5.918-8.5859-6.5234-1.4102-0.20312-2.668-0.99219-3.4648-2.1719-0.79688-1.1797-1.0547-2.6406-0.71484-4.0234 0.34375-1.3828 1.2539-2.5547 2.5078-3.2305 1.2539-0.67188 2.7344-0.78125 4.0742-0.30469 6.4648 1.3672 11.973 5.5703 14.996 11.445 3.7148 5.6328 4.918 12.559 3.3164 19.113 1.2578 2.2891 4.3477 5.8359 11.445 3.4336 9.1562-4.9219 31.477-10.531 44.98 5.4922l4.3477 6.1797 0.003907 0.003906c1.8086 1.2148 3.8945 1.9609 6.0664 2.1719 0.77344-2.5781 3.4766-4.0586 6.0664-3.3164 1.5117 0.20312 2.8438 1.0977 3.6055 2.418 0.76172 1.3242 0.86719 2.9219 0.28516 4.332z"/>
  <path d="m274.12 224.77c-0.71875-6-1.0273-12.043-0.91406-18.086-90.41 8.3672-179.48 27.582-265.3 57.23 1.5508 7.1445 3.6953 14.152 6.4102 20.945 2.0625 5.0781 7.8438 7.5352 12.93 5.4922 79.328-31.102 163-49.711 248.02-55.168z"/>
  <path d="m273.77 195.24 13.504-135.74c-81.383 6.2383-161.23 25.562-236.46 57.23-10.414 4.3438-19.047 12.09-24.492 21.973-14.891 26.738-23.867 56.363-26.324 86.871-0.80859 9.8477-0.5 19.754 0.91406 29.527 88.195-30.488 179.79-50.051 272.75-58.254 0 0 0-1.1445 0.11328-1.6055z"/>
  <use y="695.980469" xlink:href="#k"/>
  <use x="42" y="695.980469" xlink:href="#h"/>
  <use x="70.21875" y="695.980469" xlink:href="#c"/>
  <use x="109.03125" y="695.980469" xlink:href="#a"/>
  <use x="147.648438" y="695.980469" xlink:href="#g"/>
  <use x="175.007812" y="695.980469" xlink:href="#c"/>
  <use x="213.820312" y="695.980469" xlink:href="#f"/>
  <use x="274.707031" y="695.980469" xlink:href="#e"/>
  <use x="315.671875" y="695.980469" xlink:href="#d"/>
  <use x="372.898438" y="695.980469" xlink:href="#a"/>
  <use x="411.515625" y="695.980469" xlink:href="#b"/>
  <use x="452.253906" y="695.980469" xlink:href="#b"/>
  <use x="492.996094" y="695.980469" xlink:href="#a"/>
  <use x="551.535156" y="695.980469" xlink:href="#j"/>
  <use x="589.59375" y="695.980469" xlink:href="#a"/>
  <use x="628.210938" y="695.980469" xlink:href="#b"/>
  <use x="668.953125" y="695.980469" xlink:href="#i"/>
 </g>
</svg>
