<?xml version="1.0" encoding="UTF-8"?>
<svg width="700pt" height="700pt" version="1.1" viewBox="0 0 700 700" xmlns="http://www.w3.org/2000/svg" xmlns:xlink="http://www.w3.org/1999/xlink">
 <defs>
  <symbol id="h" overflow="visible">
   <path d="m39.078-2.3281c-2.0117 1.043-4.1094 1.8281-6.2969 2.3594s-4.4648 0.79688-6.8281 0.79688c-7.0859 0-12.699-1.9766-16.844-5.9375-4.1367-3.957-6.2031-9.3281-6.2031-16.109 0-6.7891 2.0664-12.164 6.2031-16.125 4.1445-3.9688 9.7578-5.9531 16.844-5.9531 2.3633 0 4.6406 0.26562 6.8281 0.79688s4.2852 1.3242 6.2969 2.375v8.7969c-2.0312-1.3828-4.0391-2.3984-6.0156-3.0469-1.9688-0.64453-4.0469-0.96875-6.2344-0.96875-3.9062 0-6.9844 1.2578-9.2344 3.7656-2.2422 2.5-3.3594 5.9531-3.3594 10.359 0 4.3867 1.1172 7.8359 3.3594 10.344 2.25 2.5 5.3281 3.75 9.2344 3.75 2.1875 0 4.2656-0.32031 6.2344-0.96875 1.9766-0.64453 3.9844-1.6602 6.0156-3.0469z"/>
  </symbol>
  <symbol id="g" overflow="visible">
   <path d="m16.031-40.953v9.0625h10.516v7.2812h-10.516v13.531c0 1.4805 0.28906 2.4805 0.875 3 0.59375 0.52344 1.7656 0.78125 3.5156 0.78125h5.2344v7.2969h-8.7344c-4.0312 0-6.8867-0.83594-8.5625-2.5156-1.6797-1.6875-2.5156-4.5391-2.5156-8.5625v-13.531h-5.0781v-7.2812h5.0781v-9.0625z"/>
  </symbol>
  <symbol id="f" overflow="visible">
   <path d="m26.594-27.234v-17.078h10.266v44.312h-10.266v-4.6094c-1.3984 1.875-2.9453 3.25-4.6406 4.125-1.6875 0.875-3.6406 1.3125-5.8594 1.3125-3.9297 0-7.1562-1.5625-9.6875-4.6875-2.5234-3.125-3.7812-7.1445-3.7812-12.062 0-4.9141 1.2578-8.9375 3.7812-12.062 2.5312-3.125 5.7578-4.6875 9.6875-4.6875 2.1953 0 4.1445 0.44531 5.8438 1.3281 1.707 0.88672 3.2578 2.2578 4.6562 4.1094zm-6.7188 20.656c2.1875 0 3.8516-0.79688 5-2.3906 1.1445-1.5938 1.7188-3.9102 1.7188-6.9531 0-3.0391-0.57422-5.3594-1.7188-6.9531-1.1484-1.5938-2.8125-2.3906-5-2.3906-2.168 0-3.8242 0.79688-4.9688 2.3906-1.1484 1.5938-1.7188 3.9141-1.7188 6.9531 0 3.043 0.57031 5.3594 1.7188 6.9531 1.1445 1.5938 2.8008 2.3906 4.9688 2.3906z"/>
  </symbol>
  <symbol id="e" overflow="visible">
   <path d="m21.875-6.5781c2.1758 0 3.8359-0.79688 4.9844-2.3906 1.1562-1.5938 1.7344-3.9102 1.7344-6.9531 0-3.0391-0.57812-5.3594-1.7344-6.9531-1.1484-1.5938-2.8086-2.3906-4.9844-2.3906-2.1875 0-3.8672 0.80469-5.0312 2.4062-1.168 1.6055-1.75 3.918-1.75 6.9375 0 3.0234 0.58203 5.3359 1.75 6.9375 1.1641 1.6055 2.8438 2.4062 5.0312 2.4062zm-6.7812-20.656c1.4062-1.8516 2.9609-3.2227 4.6719-4.1094 1.707-0.88281 3.6719-1.3281 5.8906-1.3281 3.9375 0 7.1641 1.5625 9.6875 4.6875 2.5195 3.125 3.7812 7.1484 3.7812 12.062 0 4.918-1.2617 8.9375-3.7812 12.062-2.5234 3.125-5.75 4.6875-9.6875 4.6875-2.2188 0-4.1836-0.44531-5.8906-1.3281-1.7109-0.88281-3.2656-2.2539-4.6719-4.1094v4.6094h-10.188v-44.312h10.188z"/>
  </symbol>
  <symbol id="d" overflow="visible">
   <path d="m5.3594-42.516h10.953v15.516l15.812-15.516h12.734l-20.484 20.125 22.594 22.391h-13.734l-16.922-16.75v16.75h-10.953z"/>
  </symbol>
  <symbol id="c" overflow="visible">
   <path d="m4.9062-31.891h10.188v31.891h-10.188zm0-12.422h10.188v8.3125h-10.188z"/>
  </symbol>
  <symbol id="b" overflow="visible">
   <path d="m0.28125-42.516h39.188v8.2812h-14.094v34.234h-10.969v-34.234h-14.125z"/>
  </symbol>
  <symbol id="a" overflow="visible">
   <path d="m36.969-19.422v19.422h-10.25v-14.812c0-2.7891-0.0625-4.707-0.1875-5.75-0.125-1.0391-0.33984-1.8125-0.64062-2.3125-0.39844-0.65625-0.9375-1.1719-1.625-1.5469s-1.4648-0.5625-2.3281-0.5625c-2.1367 0-3.8125 0.82422-5.0312 2.4688-1.2109 1.6484-1.8125 3.9219-1.8125 6.8281v15.688h-10.188v-44.312h10.188v17.078c1.5391-1.8516 3.1719-3.2227 4.8906-4.1094 1.7266-0.88281 3.6406-1.3281 5.7344-1.3281 3.6875 0 6.4844 1.1328 8.3906 3.3906 1.9062 2.2617 2.8594 5.5469 2.8594 9.8594z"/>
  </symbol>
 </defs>
 <g>
  <path d="m117.35 351.6c-5-4.707-7.8711-11.074-8.0781-17.945-0.21094-6.8594 2.2656-13.387 6.9766-18.387 2.0508-2.1758 2.1172-5.5586 0.16016-7.8164-0.59766-0.69531-1.1602-1.4141-1.6875-2.1172-10.227-14.07-7.1055-33.828 6.9492-44.047 1.5664-1.1406 2.4648-2.9727 2.3984-4.9102-0.0625-1.9375-1.082-3.7148-2.7227-4.7383-3.8164-2.4023-6.9336-5.8008-9.0195-9.832-3.1055-6.0156-3.6797-12.887-1.625-19.344 1.9375-6.0625 6.043-11.02 11.52-14.172l122.69-0.007813v143.43h-124.35c-0.94141 0-1.832 0.18359-2.75 0.27734-0.14844-0.13672-0.3125-0.25-0.46094-0.39063z"/>
  <path d="m214.29 481.11c-56.766 0-104.75-44.332-109.24-100.88l-0.050782-1.2891c0-8.5781 6.9766-15.562 15.559-15.562h124.35v117.73h-30.617z"/>
  <path d="m443.42 493.2c0 3.2031-2.6016 5.8125-5.8047 5.8125h-175.23c-3.2031 0-5.8047-2.6094-5.8047-5.8125v-426.39c0-3.2031 2.6016-5.8125 5.8047-5.8125h175.23c3.2031 0 5.8047 2.6094 5.8047 5.8125v426.39z"/>
  <path d="m485.71 481.11h-30.621v-117.73h124.35l1.2305 0.046876c8.5547 0.68359 14.961 8.1914 14.281 16.758-4.4805 56.59-52.469 100.92-109.24 100.92z"/>
  <path d="m583.6 307.44c-1.9727 2.2773-1.8984 5.6758 0.17578 7.8516 0.63281 0.66016 1.2266 1.3672 1.7773 2.1094 4.1367 5.4805 5.8945 12.238 4.9453 19.039-0.84375 6.0664-3.8438 11.43-8.3516 15.469-0.1875-0.019531-0.35938-0.085937-0.54688-0.10156-0.71875-0.058594-1.4414-0.089844-2.1602-0.089844l-124.35-0.003906v-143.43h122.61c3.5859 2.0586 6.6953 4.8672 8.8945 8.3633 7.457 11.836 3.8945 27.539-7.9414 34.988-1.6367 1.0234-2.6562 2.8125-2.7188 4.7383-0.0625 1.9375 0.83594 3.7812 2.4102 4.9219 0.71094 0.51172 1.4062 1.0586 2.1016 1.6758 13.137 11.395 14.547 31.344 3.1602 44.469z"/>
  <path d="m579.44 196.62h-124.35v-117.71h30.621c56.773 0 104.76 44.332 109.24 100.92l0.050781 1.2305c0.003906 8.5781-6.9805 15.562-15.562 15.562z"/>
  <path d="m214.29 78.902c-56.766 0-104.75 44.332-109.24 100.92-0.33203 4.1367 0.97266 8.168 3.6758 11.324 2.6992 3.168 6.4648 5.0938 10.613 5.4219l1.2266 0.046876h124.34v-117.71zm-13.668 41.395c-18.383 3.6914-34.738 14.844-44.859 30.625-1.1172 1.7305-2.9961 2.6758-4.918 2.6758-1.0781 0-2.1719-0.29688-3.1445-0.92188-2.7109-1.7422-3.4961-5.3555-1.7617-8.0664 11.824-18.41 30.922-31.445 52.379-35.75 3.168-0.66016 6.2305 1.4141 6.8711 4.5703 0.63672 3.1523-1.4102 6.2266-4.5664 6.8672z"/>
  <use x="70" y="735" xlink:href="#h"/>
  <use x="220.503906" y="735" xlink:href="#g"/>
  <use x="287.953125" y="735" xlink:href="#f"/>
  <use x="350.015625" y="735" xlink:href="#e"/>
  <use x="450.105469" y="735" xlink:href="#d"/>
  <use x="495.308594" y="735" xlink:href="#c"/>
  <use x="616.703125" y="735" xlink:href="#b"/>
  <use x="656.496094" y="735" xlink:href="#a"/>
 </g>
</svg>
