<svg xmlns="http://www.w3.org/2000/svg" data-name="Layer 2" viewBox="0 0 64 80" x="0px" y="0px"><path d="M35,54a9,9,0,0,1-6.13-2.42A13.85,13.85,0,0,1,21,54a14,14,0,0,1-6-1.35A9.85,9.85,0,0,1,10,54,10,10,0,0,1,7.77,34.26l.5-.1a14,14,0,0,1,25.92,1.13c.08.23.16.47.23.73L35,36a8.94,8.94,0,0,1,9,8.82V45A9,9,0,0,1,35,54Zm-6-4.74a1,1,0,0,1,.76.34A7,7,0,0,0,42,45v-.15A7,7,0,0,0,35,38a6.65,6.65,0,0,0-1.16.1,1,1,0,0,1-1.13-.76c-.13-.52-.26-1-.4-1.38a12,12,0,0,0-22.42-.52,1,1,0,0,1-.8.61,8.15,8.15,0,0,0-.86.16A8,8,0,1,0,14.4,50.68a1,1,0,0,1,1-.06A12,12,0,0,0,21,52a11.88,11.88,0,0,0,7.37-2.53A1,1,0,0,1,29,49.26Z"/><path d="M55,46a9,9,0,0,1-6.14-2.42,13.8,13.8,0,0,1-5.71,2.25,1,1,0,0,1-1.15-1A7,7,0,0,0,35,38a6.65,6.65,0,0,0-1.16.1,1,1,0,0,1-1.13-.76c-.13-.52-.26-1-.4-1.38a12.07,12.07,0,0,0-6.74-7.07A1,1,0,0,1,25,28a1,1,0,0,1,.55-.93,9.8,9.8,0,0,1,2.78-.93,14,14,0,0,1,10.93-8A14,14,0,0,1,54.43,28L55,28a9,9,0,0,1,0,18Zm-6-4.74a1,1,0,0,1,.76.34A7,7,0,1,0,55,30a6.65,6.65,0,0,0-1.16.1,1,1,0,0,1-1.13-.77A12,12,0,0,0,41,20a11.44,11.44,0,0,0-1.53.1,12,12,0,0,0-9.58,7.34,1,1,0,0,1-.81.61l-.62.1a14,14,0,0,1,5.73,7.14c.08.23.16.47.23.73L35,36a8.94,8.94,0,0,1,8.9,7.64,12.07,12.07,0,0,0,4.47-2.17A1,1,0,0,1,49,41.26Z"/><path d="M8,36.24A1,1,0,0,1,7.36,36,9,9,0,0,1,13,20l.57,0A14,14,0,0,1,39.75,18.2a1,1,0,0,1-.29,1.9,12,12,0,0,0-9.57,7.34,1,1,0,0,1-.81.61,7.87,7.87,0,0,0-2.67.81,1,1,0,0,1-.84,0A12,12,0,0,0,9.89,35.44a1,1,0,0,1-.8.61,8.15,8.15,0,0,0-.86.16ZM13,22A7,7,0,0,0,8.26,34.16h0A14,14,0,0,1,21,26a14.16,14.16,0,0,1,4.91.88,9.43,9.43,0,0,1,2.37-.73,14,14,0,0,1,9.35-7.74,12,12,0,0,0-22.34,2.92,1,1,0,0,1-1.13.77A6.65,6.65,0,0,0,13,22Z"/><text x="0" y="79" fill="#000000" font-size="5px" font-weight="bold" font-family="'Helvetica Neue', Helvetica, Arial-Unicode, Arial, Sans-serif">Created by Zenzeta Icons Design</text><text x="0" y="84" fill="#000000" font-size="5px" font-weight="bold" font-family="'Helvetica Neue', Helvetica, Arial-Unicode, Arial, Sans-serif">from the Noun Project</text></svg>