<svg xmlns="http://www.w3.org/2000/svg" xmlns:xlink="http://www.w3.org/1999/xlink" version="1.1" x="0px" y="0px" viewBox="0 0 50 62.5" style="enable-background:new 0 0 50 50;" xml:space="preserve"><g><path d="M27.1,41l1,7.5c0,0.3-0.2,0.5-0.4,0.5h-7.3c-0.3,0-0.5-0.2-0.4-0.5l0.8-6.8c1.6-0.2,3.1-0.9,4.3-1.8   C25.6,40.3,26.3,40.7,27.1,41z"/><path d="M38.1,29.7c2.8,7.9-7.7,13.8-13.1,7.4c-5.4,6.4-15.9,0.5-13.1-7.4c-5.3-2.5-5.9-9.8-1-13.2   c-2.2-5,1.4-10.7,7-10.7C19,3,21.8,1,25,1c3.2,0,6,2,7.1,4.8c5.4,0,9.2,5.6,7,10.7C43.9,19.9,43.3,27.2,38.1,29.7z"/></g><text x="0" y="65" fill="#000000" font-size="5px" font-weight="bold" font-family="'Helvetica Neue', Helvetica, Arial-Unicode, Arial, Sans-serif">Created by Vectors Market</text><text x="0" y="70" fill="#000000" font-size="5px" font-weight="bold" font-family="'Helvetica Neue', Helvetica, Arial-Unicode, Arial, Sans-serif">from the Noun Project</text></svg>